<svg xmlns="http://www.w3.org/2000/svg" width="560" height="360" viewBox="0 0 560 360"><rect width="560" height="360" fill="#ffffff"/><line x1="62" y1="316" x2="442" y2="316" stroke="#e4e3df" stroke-width="1"/><text x="54" y="320" text-anchor="end" font-size="11" fill="#52514e" font-family="Helvetica,Arial,sans-serif">0k</text><line x1="62" y1="266.3333333333333" x2="442" y2="266.3333333333333" stroke="#e4e3df" stroke-width="1"/><text x="54" y="270.3333333333333" text-anchor="end" font-size="11" fill="#52514e" font-family="Helvetica,Arial,sans-serif">20k</text><line x1="62" y1="216.66666666666669" x2="442" y2="216.66666666666669" stroke="#e4e3df" stroke-width="1"/><text x="54" y="220.66666666666669" text-anchor="end" font-size="11" fill="#52514e" font-family="Helvetica,Arial,sans-serif">40k</text><line x1="62" y1="167" x2="442" y2="167" stroke="#e4e3df" stroke-width="1"/><text x="54" y="171" text-anchor="end" font-size="11" fill="#52514e" font-family="Helvetica,Arial,sans-serif">60k</text><line x1="62" y1="117.33333333333334" x2="442" y2="117.33333333333334" stroke="#e4e3df" stroke-width="1"/><text x="54" y="121.33333333333334" text-anchor="end" font-size="11" fill="#52514e" font-family="Helvetica,Arial,sans-serif">80k</text><line x1="62" y1="67.66666666666666" x2="442" y2="67.66666666666666" stroke="#e4e3df" stroke-width="1"/><text x="54" y="71.66666666666666" text-anchor="end" font-size="11" fill="#52514e" font-family="Helvetica,Arial,sans-serif">100k</text><line x1="62" y1="18" x2="442" y2="18" stroke="#e4e3df" stroke-width="1"/><text x="54" y="22" text-anchor="end" font-size="11" fill="#52514e" font-family="Helvetica,Arial,sans-serif">120k</text><text x="62" y="334" text-anchor="middle" font-size="11" fill="#52514e" font-family="Helvetica,Arial,sans-serif">9</text><text x="157" y="334" text-anchor="middle" font-size="11" fill="#52514e" font-family="Helvetica,Arial,sans-serif">13</text><text x="252" y="334" text-anchor="middle" font-size="11" fill="#52514e" font-family="Helvetica,Arial,sans-serif">17</text><text x="347" y="334" text-anchor="middle" font-size="11" fill="#52514e" font-family="Helvetica,Arial,sans-serif">21</text><text x="442" y="334" text-anchor="middle" font-size="11" fill="#52514e" font-family="Helvetica,Arial,sans-serif">25</text><text x="252" y="352" text-anchor="middle" font-size="12" fill="#0b0b0b" font-family="Helvetica,Arial,sans-serif">Task length (steps)</text><text x="14" y="167" transform="rotate(-90 14 167)" text-anchor="middle" font-size="12" fill="#0b0b0b" font-family="Helvetica,Arial,sans-serif">Cumulative logical input (tokens)</text><polygon points="62,179.06916555555554 157,145.89332222222225 252,111.84963252777777 347,77.66307252777773 442,42.280535055555504 442,42.775393027777795 347,78.1006441388889 252,112.16255322222221 157,146.14331524999997 62,179.29647747222222" fill="#eb6834" opacity="0.18"/><polyline points="62,179.1584 157,146.00275444444446 252,111.9898622222222 347,77.87813333333332 442,42.50685777777778" fill="none" stroke="#eb6834" stroke-width="2"/><circle cx="62" cy="179.1584" r="4" fill="#eb6834" stroke="#ffffff" stroke-width="2"/><circle cx="157" cy="146.00275444444446" r="4" fill="#eb6834" stroke="#ffffff" stroke-width="2"/><circle cx="252" cy="111.9898622222222" r="4" fill="#eb6834" stroke="#ffffff" stroke-width="2"/><circle cx="347" cy="77.87813333333332" r="4" fill="#eb6834" stroke="#ffffff" stroke-width="2"/><circle cx="442" cy="42.50685777777778" r="4" fill="#eb6834" stroke="#ffffff" stroke-width="2"/><text x="452" y="46.50685777777778" font-size="12" fill="#0b0b0b" font-family="Helvetica,Arial,sans-serif">Browser Use</text><polygon points="62,198.49893111111112 157,188.4411 252,164.38170163888887 347,141.17546072222223 442,112.04265375000003 442,116.85010977777776 347,145.66622138888886 252,167.99451291666665 157,189.60843222222223 62,199.28350716666665" fill="#2a78d6" opacity="0.18"/><polyline points="62,198.77772666666667 157,189.18030555555555 252,166.17735444444446 347,143.46859555555554 442,114.34538666666668" fill="none" stroke="#2a78d6" stroke-width="2"/><circle cx="62" cy="198.77772666666667" r="4" fill="#2a78d6" stroke="#ffffff" stroke-width="2"/><circle cx="157" cy="189.18030555555555" r="4" fill="#2a78d6" stroke="#ffffff" stroke-width="2"/><circle cx="252" cy="166.17735444444446" r="4" fill="#2a78d6" stroke="#ffffff" stroke-width="2"/><circle cx="347" cy="143.46859555555554" r="4" fill="#2a78d6" stroke="#ffffff" stroke-width="2"/><circle cx="442" cy="114.34538666666668" r="4" fill="#2a78d6" stroke="#ffffff" stroke-width="2"/><text x="452" y="118.34538666666668" font-size="12" fill="#0b0b0b" font-family="Helvetica,Arial,sans-serif">Rote</text><text x="68" y="32" font-size="11" fill="#52514e" font-family="Helvetica,Arial,sans-serif">Slope reduction 37.2% [35.6–38.8%]</text></svg>