<svg xmlns="http://www.w3.org/2000/svg" width="820" height="470" viewBox="0 0 820 470" role="img" aria-labelledby="title desc"><title id="title">Billed cost before and after stable cache routing</title><desc id="desc">Rote's prompt cache key lowers billed cost across the WordPress curve and beats Browser Use at the longest checkpoint.</desc><rect width="100%" height="100%" fill="white"/><g font-family="system-ui,sans-serif" font-size="12" fill="#374151"><g><line x1="85" y1="395" x2="790" y2="395" stroke="#e5e7eb"/><text x="73" y="399" text-anchor="end">0.0¢</text></g><g><line x1="85" y1="307.5" x2="790" y2="307.5" stroke="#e5e7eb"/><text x="73" y="311.5" text-anchor="end">0.9¢</text></g><g><line x1="85" y1="220" x2="790" y2="220" stroke="#e5e7eb"/><text x="73" y="224" text-anchor="end">1.7¢</text></g><g><line x1="85" y1="132.5" x2="790" y2="132.5" stroke="#e5e7eb"/><text x="73" y="136.5" text-anchor="end">2.6¢</text></g><g><line x1="85" y1="45" x2="790" y2="45" stroke="#e5e7eb"/><text x="73" y="49" text-anchor="end">3.5¢</text></g><text x="85" y="423" text-anchor="middle">9</text><text x="261.25" y="423" text-anchor="middle">13</text><text x="437.5" y="423" text-anchor="middle">17</text><text x="613.75" y="423" text-anchor="middle">21</text><text x="790" y="423" text-anchor="middle">25</text><line x1="85" y1="45" x2="85" y2="395" stroke="#111827"/><line x1="85" y1="395" x2="790" y2="395" stroke="#111827"/><text x="437.5" y="452" text-anchor="middle" font-size="14">Required browser interactions</text><text transform="translate(20 220) rotate(-90)" text-anchor="middle" font-size="14">Mean billed cost (USD cents)</text><path d="M85.0,200.6 L261.3,200.1 L437.5,157.8 L613.8,122.3 L790.0,82.5" fill="none" stroke="#dc2626" stroke-width="3"/><circle cx="85" cy="200.57479194570797" r="4" fill="#dc2626"/><circle cx="261.25" cy="200.1059273522961" r="4" fill="#dc2626"/><circle cx="437.5" cy="157.84624426279754" r="4" fill="#dc2626"/><circle cx="613.75" cy="122.26337590254417" r="4" fill="#dc2626"/><circle cx="790" cy="82.50000000000006" r="4" fill="#dc2626"/><path d="M85.0,225.1 L261.3,272.6 L437.5,192.7 L613.8,156.7 L790.0,146.7" fill="none" stroke="#2563eb" stroke-width="3"/><circle cx="85" cy="225.13571087942321" r="4" fill="#2563eb"/><circle cx="261.25" cy="272.6322590891406" r="4" fill="#2563eb"/><circle cx="437.5" cy="192.66058356775665" r="4" fill="#2563eb"/><circle cx="613.75" cy="156.74012194030212" r="4" fill="#2563eb"/><circle cx="790" cy="146.7180403816423" r="4" fill="#2563eb"/><path d="M85.0,247.3 L261.3,208.4 L437.5,173.2 L613.8,135.3 L790.0,99.6" fill="none" stroke="#6b7280" stroke-width="3"/><circle cx="85" cy="247.3060390835626" r="4" fill="#6b7280"/><circle cx="261.25" cy="208.38866383866625" r="4" fill="#6b7280"/><circle cx="437.5" cy="173.15952866277132" r="4" fill="#6b7280"/><circle cx="613.75" cy="135.2893650427472" r="4" fill="#6b7280"/><circle cx="790" cy="99.56661740046621" r="4" fill="#6b7280"/><g transform="translate(100 53)"><line x2="24" stroke="#dc2626" stroke-width="3"/><text x="31" y="4">Rote before</text><line x1="105" x2="129" stroke="#2563eb" stroke-width="3"/><text x="136" y="4">Rote cache-key</text><line x1="245" x2="269" stroke="#6b7280" stroke-width="3"/><text x="276" y="4">Browser Use</text></g></g></svg>
