<svg xmlns="http://www.w3.org/2000/svg" width="820" height="470" viewBox="0 0 820 470" role="img" aria-labelledby="title desc"><title id="title">Cumulative logical input tokens by required interactions</title><desc id="desc">Rote grows more slowly than Browser Use across five WordPress tag-creation checkpoints. Error bars are 95 percent seeded-bootstrap intervals.</desc><rect width="100%" height="100%" fill="white"/><g font-family="system-ui,sans-serif" font-size="12" fill="#374151"><g><line x1="85" y1="395" x2="790" y2="395" stroke="#e5e7eb"/><text x="73" y="399" text-anchor="end">0K</text></g><g><line x1="85" y1="307.5" x2="790" y2="307.5" stroke="#e5e7eb"/><text x="73" y="311.5" text-anchor="end">30K</text></g><g><line x1="85" y1="220" x2="790" y2="220" stroke="#e5e7eb"/><text x="73" y="224" text-anchor="end">61K</text></g><g><line x1="85" y1="132.5" x2="790" y2="132.5" stroke="#e5e7eb"/><text x="73" y="136.5" text-anchor="end">91K</text></g><g><line x1="85" y1="45" x2="790" y2="45" stroke="#e5e7eb"/><text x="73" y="49" text-anchor="end">121K</text></g><text x="85" y="423" text-anchor="middle">9</text><text x="261.25" y="423" text-anchor="middle">13</text><text x="437.5" y="423" text-anchor="middle">17</text><text x="613.75" y="423" text-anchor="middle">21</text><text x="790" y="423" text-anchor="middle">25</text><line x1="85" y1="45" x2="85" y2="395" stroke="#111827"/><line x1="85" y1="395" x2="790" y2="395" stroke="#111827"/><text x="437.5" y="452" text-anchor="middle" font-size="14">Required browser interactions</text><text transform="translate(20 220) rotate(-90)" text-anchor="middle" font-size="14">Cumulative logical input tokens</text><path d="M85.0,235.7 L261.3,198.3 L437.5,158.5 L613.8,117.8 L790.0,79.1" fill="none" stroke="#6b7280" stroke-width="3"/><path d="M85,235.77591321090122V235.68520051421856M80,235.77591321090122H90M80,235.68520051421856H90" stroke="#6b7280" stroke-width="1.5"/><circle cx="85" cy="235.73103835245738" r="4" fill="#6b7280"/><path d="M261.25,200.630829278676V197.05045114152045M256.25,200.630829278676H266.25M256.25,197.05045114152045H266.25" stroke="#6b7280" stroke-width="1.5"/><circle cx="261.25" cy="198.28672460225502" r="4" fill="#6b7280"/><path d="M437.5,159.72170941140695V157.83405234288512M432.5,159.72170941140695H442.5M432.5,157.83405234288512H442.5" stroke="#6b7280" stroke-width="1.5"/><circle cx="437.5" cy="158.50487369783315" r="4" fill="#6b7280"/><path d="M613.75,118.06570723008713V117.50947084093815M608.75,118.06570723008713H618.75M608.75,117.50947084093815H618.75" stroke="#6b7280" stroke-width="1.5"/><circle cx="613.75" cy="117.7997177660298" r="4" fill="#6b7280"/><path d="M790,83.66731301595365V76.81818181818187M785,83.66731301595365H795M785,76.81818181818187H795" stroke="#6b7280" stroke-width="1.5"/><circle cx="790" cy="79.14513100955611" r="4" fill="#6b7280"/><path d="M85.0,259.3 L261.3,247.2 L437.5,221.7 L613.8,193.0 L790.0,163.6" fill="none" stroke="#2563eb" stroke-width="3"/><path d="M85,260.25949634580195V258.5607710981469M80,260.25949634580195H90M80,258.5607710981469H90" stroke="#2563eb" stroke-width="1.5"/><circle cx="85" cy="259.33521389392865" r="4" fill="#2563eb"/><path d="M261.25,248.0359989870058V245.8954682392336M256.25,248.0359989870058H266.25M256.25,245.8954682392336H266.25" stroke="#2563eb" stroke-width="1.5"/><circle cx="261.25" cy="247.15929736680013" r="4" fill="#2563eb"/><path d="M437.5,223.3197791932453V220.0040230888383M432.5,223.3197791932453H442.5M432.5,220.0040230888383H442.5" stroke="#2563eb" stroke-width="1.5"/><circle cx="437.5" cy="221.71236368974576" r="4" fill="#2563eb"/><path d="M613.75,195.56732744015292V190.59713352885976M608.75,195.56732744015292H618.75M608.75,190.59713352885976H618.75" stroke="#2563eb" stroke-width="1.5"/><circle cx="613.75" cy="193.03829212391304" r="4" fill="#2563eb"/><path d="M790,166.81854790182928V160.40265649889872M785,166.81854790182928H795M785,160.40265649889872H795" stroke="#2563eb" stroke-width="1.5"/><circle cx="790" cy="163.59402931809322" r="4" fill="#2563eb"/><g transform="translate(100 53)"><line x2="28" stroke="#2563eb" stroke-width="3"/><text x="36" y="4">Rote</text><line x1="95" x2="123" stroke="#6b7280" stroke-width="3"/><text x="131" y="4">Browser Use 0.13.6</text></g><text x="790" y="50" text-anchor="end" font-weight="600">Slope reduction 37.6%</text></g></svg>
