<svg xmlns="http://www.w3.org/2000/svg" width="820" height="470" viewBox="0 0 820 470" role="img" aria-labelledby="title desc"><title id="title">Cumulative logical input tokens by required interactions</title><desc id="desc">Rote grows more slowly than Browser Use across five WordPress tag-creation checkpoints. Error bars are 95 percent seeded-bootstrap intervals.</desc><rect width="100%" height="100%" fill="white"/><g font-family="system-ui,sans-serif" font-size="12" fill="#374151"><g><line x1="85" y1="395" x2="790" y2="395" stroke="#e5e7eb"/><text x="73" y="399" text-anchor="end">0K</text></g><g><line x1="85" y1="307.5" x2="790" y2="307.5" stroke="#e5e7eb"/><text x="73" y="311.5" text-anchor="end">30K</text></g><g><line x1="85" y1="220" x2="790" y2="220" stroke="#e5e7eb"/><text x="73" y="224" text-anchor="end">61K</text></g><g><line x1="85" y1="132.5" x2="790" y2="132.5" stroke="#e5e7eb"/><text x="73" y="136.5" text-anchor="end">91K</text></g><g><line x1="85" y1="45" x2="790" y2="45" stroke="#e5e7eb"/><text x="73" y="49" text-anchor="end">121K</text></g><text x="85" y="423" text-anchor="middle">9</text><text x="261.25" y="423" text-anchor="middle">13</text><text x="437.5" y="423" text-anchor="middle">17</text><text x="613.75" y="423" text-anchor="middle">21</text><text x="790" y="423" text-anchor="middle">25</text><line x1="85" y1="45" x2="85" y2="395" stroke="#111827"/><line x1="85" y1="395" x2="790" y2="395" stroke="#111827"/><text x="437.5" y="452" text-anchor="middle" font-size="14">Required browser interactions</text><text transform="translate(20 220) rotate(-90)" text-anchor="middle" font-size="14">Cumulative logical input tokens</text><path d="M85.0,235.9 L261.3,197.4 L437.5,157.9 L613.8,118.2 L790.0,77.1" fill="none" stroke="#6b7280" stroke-width="3"/><path d="M85,236.0906752335799V235.82643929787807M80,236.0906752335799H90M80,235.82643929787807H90" stroke="#6b7280" stroke-width="1.5"/><circle cx="85" cy="235.93016877792635" r="4" fill="#6b7280"/><path d="M261.25,197.55219045141627V197.26158913766884M256.25,197.55219045141627H266.25M256.25,197.26158913766884H266.25" stroke="#6b7280" stroke-width="1.5"/><circle cx="261.25" cy="197.38879727553876" r="4" fill="#6b7280"/><path d="M437.5,158.0516724762095V157.68792167198643M432.5,158.0516724762095H442.5M432.5,157.68792167198643H442.5" stroke="#6b7280" stroke-width="1.5"/><circle cx="437.5" cy="157.85092995183405" r="4" fill="#6b7280"/><path d="M613.75,118.45682610648379V117.94817638061812M608.75,118.45682610648379H618.75M608.75,117.94817638061812H618.75" stroke="#6b7280" stroke-width="1.5"/><circle cx="613.75" cy="118.19817116321502" r="4" fill="#6b7280"/><path d="M790,77.39342336841429V76.81818181818181M785,77.39342336841429H795M785,76.81818181818181H795" stroke="#6b7280" stroke-width="1.5"/><circle cx="790" cy="77.0812678769945" r="4" fill="#6b7280"/><path d="M85.0,258.7 L261.3,247.6 L437.5,220.8 L613.8,194.4 L790.0,160.6" fill="none" stroke="#2563eb" stroke-width="3"/><path d="M85,259.32435154345825V258.4123307782954M80,259.32435154345825H90M80,258.4123307782954H90" stroke="#2563eb" stroke-width="1.5"/><circle cx="85" cy="258.73641323544075" r="4" fill="#2563eb"/><path d="M261.25,248.07767992843992V246.72072897515542M256.25,248.07767992843992H266.25M256.25,246.72072897515542H266.25" stroke="#2563eb" stroke-width="1.5"/><circle cx="261.25" cy="247.58000936182617" r="4" fill="#2563eb"/><path d="M437.5,222.95284584302846V218.7531779043803M432.5,222.95284584302846H442.5M432.5,218.7531779043803H442.5" stroke="#2563eb" stroke-width="1.5"/><circle cx="437.5" cy="220.84051237513455" r="4" fill="#2563eb"/><path d="M613.75,196.99759857318602V191.77736918895354M608.75,196.99759857318602H618.75M608.75,191.77736918895354H618.75" stroke="#2563eb" stroke-width="1.5"/><circle cx="613.75" cy="194.44299551097686" r="4" fill="#2563eb"/><path d="M790,163.50066481579148V157.91229681259549M785,163.50066481579148H795M785,157.91229681259549H795" stroke="#2563eb" stroke-width="1.5"/><circle cx="790" cy="160.5890803082845" r="4" fill="#2563eb"/><g transform="translate(100 53)"><line x2="28" stroke="#2563eb" stroke-width="3"/><text x="36" y="4">Rote</text><line x1="95" x2="123" stroke="#6b7280" stroke-width="3"/><text x="131" y="4">Browser Use 0.13.6</text></g><text x="790" y="50" text-anchor="end" font-weight="600">Slope reduction 37.2%</text></g></svg>
